<svg xmlns="http://www.w3.org/2000/svg" viewBox="0 0 512 512">
    <defs><linearGradient id="gFull" x1="0" y1="0" x2="1" y2="1">
     <stop offset="0" stop-color="#ff3d81"/><stop offset="0.55" stop-color="#b026ff"/><stop offset="1" stop-color="#5b2bff"/>
   </linearGradient></defs><rect width="512" height="512" rx="118" fill="#0e0a18"/>
    <line x1="256.00" y1="168.00" x2="256.00" y2="129.00" stroke="url(#gFull)" stroke-width="14" stroke-linecap="round"/><line x1="269.77" y1="169.08" x2="278.74" y2="112.41" stroke="url(#gFull)" stroke-width="14" stroke-linecap="round"/><line x1="283.19" y1="172.31" x2="297.04" y2="129.69" stroke="url(#gFull)" stroke-width="14" stroke-linecap="round"/><line x1="295.95" y1="177.59" x2="302.50" y2="164.74" stroke="url(#gFull)" stroke-width="14" stroke-linecap="round"/><line x1="307.73" y1="184.81" x2="311.96" y2="178.98" stroke="url(#gFull)" stroke-width="14" stroke-linecap="round"/><line x1="318.23" y1="193.77" x2="334.07" y2="177.93" stroke="url(#gFull)" stroke-width="14" stroke-linecap="round"/><line x1="327.19" y1="204.27" x2="361.89" y2="179.06" stroke="url(#gFull)" stroke-width="14" stroke-linecap="round"/><line x1="334.41" y1="216.05" x2="367.76" y2="199.06" stroke="url(#gFull)" stroke-width="14" stroke-linecap="round"/><line x1="339.69" y1="228.81" x2="356.93" y2="223.21" stroke="url(#gFull)" stroke-width="14" stroke-linecap="round"/><line x1="342.92" y1="242.23" x2="360.51" y2="239.45" stroke="url(#gFull)" stroke-width="14" stroke-linecap="round"/><line x1="344.00" y1="256.00" x2="385.77" y2="256.00" stroke="url(#gFull)" stroke-width="14" stroke-linecap="round"/><line x1="342.92" y1="269.77" x2="400.64" y2="278.91" stroke="url(#gFull)" stroke-width="14" stroke-linecap="round"/><line x1="339.69" y1="283.19" x2="380.68" y2="296.51" stroke="url(#gFull)" stroke-width="14" stroke-linecap="round"/><line x1="334.41" y1="295.95" x2="346.05" y2="301.88" stroke="url(#gFull)" stroke-width="14" stroke-linecap="round"/><line x1="327.19" y1="307.73" x2="333.02" y2="311.96" stroke="url(#gFull)" stroke-width="14" stroke-linecap="round"/><line x1="318.23" y1="318.23" x2="336.08" y2="336.08" stroke="url(#gFull)" stroke-width="14" stroke-linecap="round"/><line x1="307.73" y1="327.19" x2="332.99" y2="361.96" stroke="url(#gFull)" stroke-width="14" stroke-linecap="round"/><line x1="295.95" y1="334.41" x2="311.50" y2="364.92" stroke="url(#gFull)" stroke-width="14" stroke-linecap="round"/><line x1="283.19" y1="339.69" x2="287.96" y2="354.38" stroke="url(#gFull)" stroke-width="14" stroke-linecap="round"/><line x1="269.77" y1="342.92" x2="272.68" y2="361.34" stroke="url(#gFull)" stroke-width="14" stroke-linecap="round"/><line x1="256.00" y1="344.00" x2="256.00" y2="388.42" stroke="url(#gFull)" stroke-width="14" stroke-linecap="round"/><line x1="242.23" y1="342.92" x2="232.99" y2="401.27" stroke="url(#gFull)" stroke-width="14" stroke-linecap="round"/><line x1="228.81" y1="339.69" x2="216.08" y2="378.86" stroke="url(#gFull)" stroke-width="14" stroke-linecap="round"/><line x1="216.05" y1="334.41" x2="210.60" y2="345.09" stroke="url(#gFull)" stroke-width="14" stroke-linecap="round"/><line x1="204.27" y1="327.19" x2="200.04" y2="333.02" stroke="url(#gFull)" stroke-width="14" stroke-linecap="round"/><line x1="193.77" y1="318.23" x2="173.92" y2="338.08" stroke="url(#gFull)" stroke-width="14" stroke-linecap="round"/><line x1="184.81" y1="307.73" x2="150.23" y2="332.85" stroke="url(#gFull)" stroke-width="14" stroke-linecap="round"/><line x1="177.59" y1="295.95" x2="150.03" y2="309.99" stroke="url(#gFull)" stroke-width="14" stroke-linecap="round"/><line x1="172.31" y1="283.19" x2="159.91" y2="287.22" stroke="url(#gFull)" stroke-width="14" stroke-linecap="round"/><line x1="169.08" y1="269.77" x2="149.56" y2="272.86" stroke="url(#gFull)" stroke-width="14" stroke-linecap="round"/><line x1="168.00" y1="256.00" x2="121.08" y2="256.00" stroke="url(#gFull)" stroke-width="14" stroke-linecap="round"/><line x1="169.08" y1="242.23" x2="110.53" y2="232.96" stroke="url(#gFull)" stroke-width="14" stroke-linecap="round"/><line x1="172.31" y1="228.81" x2="135.10" y2="216.72" stroke="url(#gFull)" stroke-width="14" stroke-linecap="round"/><line x1="177.59" y1="216.05" x2="167.59" y2="210.95" stroke="url(#gFull)" stroke-width="14" stroke-linecap="round"/><line x1="184.81" y1="204.27" x2="177.21" y2="198.76" stroke="url(#gFull)" stroke-width="14" stroke-linecap="round"/><line x1="193.77" y1="193.77" x2="171.96" y2="171.96" stroke="url(#gFull)" stroke-width="14" stroke-linecap="round"/><line x1="204.27" y1="184.81" x2="179.48" y2="150.67" stroke="url(#gFull)" stroke-width="14" stroke-linecap="round"/><line x1="216.05" y1="177.59" x2="203.54" y2="153.04" stroke="url(#gFull)" stroke-width="14" stroke-linecap="round"/><line x1="228.81" y1="172.31" x2="225.43" y2="161.91" stroke="url(#gFull)" stroke-width="14" stroke-linecap="round"/><line x1="242.23" y1="169.08" x2="238.93" y2="148.22" stroke="url(#gFull)" stroke-width="14" stroke-linecap="round"/><circle cx="256" cy="256" r="54" fill="none" stroke="#fdeee6" stroke-width="14"/>
  </svg>