<svg xmlns="http://www.w3.org/2000/svg" viewBox="0 0 512 512">
    <g transform="translate(256 256) scale(1.42) translate(-256 -256)"><line x1="256.00" y1="168.00" x2="256.00" y2="114.70" stroke="#e3a008" stroke-width="14" stroke-linecap="round"/><line x1="269.77" y1="169.08" x2="282.03" y2="91.63" stroke="#e3a008" stroke-width="14" stroke-linecap="round"/><line x1="283.19" y1="172.31" x2="302.12" y2="114.07" stroke="#e3a008" stroke-width="14" stroke-linecap="round"/><line x1="295.95" y1="177.59" x2="304.90" y2="160.03" stroke="#e3a008" stroke-width="14" stroke-linecap="round"/><line x1="307.73" y1="184.81" x2="313.51" y2="176.85" stroke="#e3a008" stroke-width="14" stroke-linecap="round"/><line x1="318.23" y1="193.77" x2="339.88" y2="172.12" stroke="#e3a008" stroke-width="14" stroke-linecap="round"/><line x1="327.19" y1="204.27" x2="374.62" y2="169.82" stroke="#e3a008" stroke-width="14" stroke-linecap="round"/><line x1="334.41" y1="216.05" x2="379.99" y2="192.83" stroke="#e8590c" stroke-width="14" stroke-linecap="round"/><line x1="339.69" y1="228.81" x2="363.24" y2="221.15" stroke="#e8590c" stroke-width="14" stroke-linecap="round"/><line x1="342.92" y1="242.23" x2="366.96" y2="238.42" stroke="#e8590c" stroke-width="14" stroke-linecap="round"/><line x1="344.00" y1="256.00" x2="401.08" y2="256.00" stroke="#e8590c" stroke-width="14" stroke-linecap="round"/><line x1="342.92" y1="269.77" x2="421.80" y2="282.26" stroke="#e8590c" stroke-width="14" stroke-linecap="round"/><line x1="339.69" y1="283.19" x2="395.70" y2="301.39" stroke="#e8590c" stroke-width="14" stroke-linecap="round"/><line x1="334.41" y1="295.95" x2="350.32" y2="304.06" stroke="#e8590c" stroke-width="14" stroke-linecap="round"/><line x1="327.19" y1="307.73" x2="335.15" y2="313.51" stroke="#d6336c" stroke-width="14" stroke-linecap="round"/><line x1="318.23" y1="318.23" x2="342.63" y2="342.63" stroke="#d6336c" stroke-width="14" stroke-linecap="round"/><line x1="307.73" y1="327.19" x2="342.25" y2="374.71" stroke="#d6336c" stroke-width="14" stroke-linecap="round"/><line x1="295.95" y1="334.41" x2="317.20" y2="376.10" stroke="#d6336c" stroke-width="14" stroke-linecap="round"/><line x1="283.19" y1="339.69" x2="289.71" y2="359.76" stroke="#d6336c" stroke-width="14" stroke-linecap="round"/><line x1="269.77" y1="342.92" x2="273.75" y2="368.10" stroke="#d6336c" stroke-width="14" stroke-linecap="round"/><line x1="256.00" y1="344.00" x2="256.00" y2="404.71" stroke="#0ca678" stroke-width="14" stroke-linecap="round"/><line x1="242.23" y1="342.92" x2="229.60" y2="422.66" stroke="#0ca678" stroke-width="14" stroke-linecap="round"/><line x1="228.81" y1="339.69" x2="211.41" y2="393.22" stroke="#0ca678" stroke-width="14" stroke-linecap="round"/><line x1="216.05" y1="334.41" x2="208.61" y2="349.01" stroke="#0ca678" stroke-width="14" stroke-linecap="round"/><line x1="204.27" y1="327.19" x2="198.49" y2="335.15" stroke="#0ca678" stroke-width="14" stroke-linecap="round"/><line x1="193.77" y1="318.23" x2="166.64" y2="345.36" stroke="#0ca678" stroke-width="14" stroke-linecap="round"/><line x1="184.81" y1="307.73" x2="137.55" y2="342.06" stroke="#0ca678" stroke-width="14" stroke-linecap="round"/><line x1="177.59" y1="295.95" x2="139.92" y2="315.14" stroke="#1c7ed6" stroke-width="14" stroke-linecap="round"/><line x1="172.31" y1="283.19" x2="155.37" y2="288.70" stroke="#1c7ed6" stroke-width="14" stroke-linecap="round"/><line x1="169.08" y1="269.77" x2="142.40" y2="273.99" stroke="#1c7ed6" stroke-width="14" stroke-linecap="round"/><line x1="168.00" y1="256.00" x2="103.88" y2="256.00" stroke="#1c7ed6" stroke-width="14" stroke-linecap="round"/><line x1="169.08" y1="242.23" x2="89.06" y2="229.56" stroke="#1c7ed6" stroke-width="14" stroke-linecap="round"/><line x1="172.31" y1="228.81" x2="121.46" y2="212.28" stroke="#1c7ed6" stroke-width="14" stroke-linecap="round"/><line x1="177.59" y1="216.05" x2="163.92" y2="209.08" stroke="#1c7ed6" stroke-width="14" stroke-linecap="round"/><line x1="184.81" y1="204.27" x2="174.43" y2="196.73" stroke="#7048e8" stroke-width="14" stroke-linecap="round"/><line x1="193.77" y1="193.77" x2="163.97" y2="163.97" stroke="#7048e8" stroke-width="14" stroke-linecap="round"/><line x1="204.27" y1="184.81" x2="170.38" y2="138.16" stroke="#7048e8" stroke-width="14" stroke-linecap="round"/><line x1="216.05" y1="177.59" x2="198.95" y2="144.03" stroke="#7048e8" stroke-width="14" stroke-linecap="round"/><line x1="228.81" y1="172.31" x2="224.19" y2="158.09" stroke="#7048e8" stroke-width="14" stroke-linecap="round"/><line x1="242.23" y1="169.08" x2="237.72" y2="140.57" stroke="#7048e8" stroke-width="14" stroke-linecap="round"/><path d="M 256.00 202.00 A 54 54 0 0 1 303.30 229.94" fill="none" stroke="#e3a008" stroke-width="14"/><path d="M 302.77 229.00 A 54 54 0 0 1 302.22 283.93" fill="none" stroke="#e8590c" stroke-width="14"/><path d="M 302.77 283.00 A 54 54 0 0 1 254.92 309.99" fill="none" stroke="#d6336c" stroke-width="14"/><path d="M 256.00 310.00 A 54 54 0 0 1 208.70 282.06" fill="none" stroke="#0ca678" stroke-width="14"/><path d="M 209.23 283.00 A 54 54 0 0 1 209.78 228.07" fill="none" stroke="#1c7ed6" stroke-width="14"/><path d="M 209.23 229.00 A 54 54 0 0 1 257.08 202.01" fill="none" stroke="#7048e8" stroke-width="14"/></g>
  </svg>